<svg xmlns="http://www.w3.org/2000/svg" width="15" height="15" fill="none" viewBox="0 0 15 15">
    <path fill="#C39E37" d="M3.047.762c-.959 0-1.586.63-1.586 1.457 0 .81.609 1.457 1.55 1.457h.018c.977 0 1.586-.648 1.586-1.457C4.597 1.391 4.006.762 3.047.762zM1.627 4.828h2.804v8.434H1.627V4.828zM11.31 4.63c-1.511 0-2.526 1.42-2.526 1.42V4.829H5.981v8.434h2.803v-4.71c0-.252.019-.504.093-.684.202-.504.663-1.026 1.438-1.026 1.014 0 1.42.774 1.42 1.908v4.512h2.803V8.426c0-2.59-1.383-3.796-3.227-3.796z"/>
</svg>
