<svg xmlns="http://www.w3.org/2000/svg" width="15" height="15" fill="none" viewBox="0 0 15 15">
    <path fill="#C39E37" d="M4.887 14.132c5.307 0 8.209-4.397 8.209-8.21 0-.124-.003-.249-.008-.372.563-.408 1.053-.916 1.439-1.494-.517.23-1.073.384-1.657.454.596-.357 1.053-.922 1.269-1.596-.558.33-1.175.57-1.832.7-.527-.56-1.276-.911-2.106-.911-1.594 0-2.886 1.292-2.886 2.885 0 .226.026.446.075.657-2.398-.12-4.524-1.268-5.947-3.014-.248.426-.39.922-.39 1.45 0 1.001.509 1.885 1.283 2.402-.473-.015-.918-.145-1.306-.361v.037c0 1.397.994 2.564 2.314 2.828-.243.066-.498.102-.76.102-.186 0-.367-.019-.543-.052.367 1.146 1.432 1.98 2.695 2.003-.987.774-2.231 1.236-3.583 1.236-.233 0-.463-.014-.689-.04 1.277.818 2.793 1.296 4.423 1.296"/>
</svg>
