<svg xmlns="http://www.w3.org/2000/svg" width="15" height="15" fill="none" viewBox="0 0 15 15">
    <path fill="#fff" d="M8.023 14.098c-1.574.003-3.085-.613-4.21-1.714-1.124-1.101-1.77-2.6-1.801-4.173-.03-1.573.558-3.096 1.638-4.24 1.081-1.143 2.568-1.817 4.14-1.876.167-.007.224.118.224.294.003.03-.001.06-.011.09-.01.029-.025.055-.046.078-.02.023-.045.041-.072.054-.028.013-.058.02-.088.022-1.429.06-2.778.676-3.757 1.719-.979 1.042-1.51 2.426-1.481 3.856.03 1.43.618 2.791 1.64 3.792 1.021 1 2.394 1.561 3.824 1.561 2.729 0 5.053-2.053 5.417-4.726H8.63c-.134 0-.21-.121-.21-.255 0-.172.063-.282.226-.282h5.115c.035 0 .069.007.1.021.032.014.06.034.084.06.023.025.041.055.052.088.011.032.016.067.013.101v.02c-.255 3.09-2.884 5.51-5.987 5.51z"/>
    <path fill="#C39E37" d="M11.202 7.117c-.514 0-1.017-.152-1.445-.438-.428-.286-.761-.692-.958-1.168-.197-.475-.248-.998-.148-1.502.1-.505.348-.968.712-1.332.364-.364.827-.611 1.332-.712.504-.1 1.027-.049 1.502.148.476.197.882.53 1.167.958.286.428.439.93.439 1.445 0 .69-.274 1.352-.762 1.84-.488.487-1.15.761-1.84.761zm0-4.772c-.43 0-.85.128-1.206.366-.357.239-.635.578-.8.974-.164.397-.207.834-.123 1.255.084.42.29.808.594 1.111.303.304.69.51 1.111.594.421.084.858.041 1.255-.123.396-.164.735-.443.974-.8.239-.357.366-.776.366-1.206 0-.575-.23-1.127-.637-1.534-.407-.407-.959-.636-1.534-.637z"/>
</svg>
