<svg width="20" height="20" viewBox="0 0 20 20" fill="none" xmlns="http://www.w3.org/2000/svg">
<path d="M13.913 4H2.08696C0.934362 4 0 4.93436 0 6.08696V17.913C0 19.0656 0.934362 20 2.08696 20H13.913C15.0656 20 16 19.0656 16 17.913V6.08696C16 4.93436 15.0656 4 13.913 4Z" fill="#2E3A59"/>
<path d="M17.875 0H5.125C3.95139 0 3 0.951392 3 2.12499C3 2.51621 3.31713 2.83334 3.70835 2.83334C4.09956 2.83334 4.41665 2.51621 4.41665 2.12499C4.41665 1.73378 4.73378 1.41665 5.125 1.41665H17.875C18.2662 1.41665 18.5833 1.73378 18.5833 2.12499V14.875C18.5833 15.2662 18.2662 15.5833 17.875 15.5833C17.4838 15.5833 17.1667 15.9004 17.1667 16.2917C17.1667 16.6829 17.4838 17 17.875 17C19.0486 17 20 16.0486 20 14.875V2.12499C20 0.951392 19.0486 0 17.875 0Z" fill="#222B45"/>
</svg>
